<svg xmlns="http://www.w3.org/2000/svg" xmlns:xlink="http://www.w3.org/1999/xlink" width="500" zoomAndPan="magnify" viewBox="0 0 375 374.999991" height="500" preserveAspectRatio="xMidYMid meet" version="1.0"><defs><g/><clipPath id="d6d8fbf5b4"><path d="M 90.84375 204.773438 L 120.636719 204.773438 L 120.636719 235.707031 L 90.84375 235.707031 Z M 90.84375 204.773438 " clip-rule="nonzero"/></clipPath></defs><g clip-path="url(#d6d8fbf5b4)"><path fill="#0478cf" d="M 90.84375 204.773438 L 120.636719 204.773438 L 120.636719 235.730469 L 90.84375 235.730469 Z M 90.84375 204.773438 " fill-opacity="1" fill-rule="nonzero"/></g><g fill="#a6a6a6" fill-opacity="1"><g transform="translate(119.102867, 197.224996)"><g><path d="M 4.25 -23.09375 L 4.25 -11.28125 L 4.3125 -11.28125 C 4.851562 -11.988281 5.515625 -12.539062 6.296875 -12.9375 C 7.078125 -13.332031 7.914062 -13.53125 8.8125 -13.53125 C 10.101562 -13.53125 11.234375 -13.203125 12.203125 -12.546875 C 13.171875 -11.890625 13.898438 -11.035156 14.390625 -9.984375 C 14.890625 -8.929688 15.140625 -7.796875 15.140625 -6.578125 C 15.140625 -5.378906 14.890625 -4.25 14.390625 -3.1875 C 13.898438 -2.125 13.164062 -1.265625 12.1875 -0.609375 C 11.207031 0.0351562 10.09375 0.359375 8.84375 0.359375 C 7.925781 0.359375 7.078125 0.175781 6.296875 -0.1875 C 5.515625 -0.5625 4.851562 -1.101562 4.3125 -1.8125 L 4.25 -1.8125 L 4.25 0 L 2.015625 0 L 2.015625 -23.09375 Z M 8.40625 -11.453125 C 7.207031 -11.453125 6.195312 -10.984375 5.375 -10.046875 C 4.550781 -9.117188 4.140625 -8.007812 4.140625 -6.71875 C 4.140625 -5.28125 4.539062 -4.082031 5.34375 -3.125 C 6.144531 -2.175781 7.179688 -1.703125 8.453125 -1.703125 C 9.773438 -1.703125 10.835938 -2.164062 11.640625 -3.09375 C 12.453125 -4.019531 12.859375 -5.21875 12.859375 -6.6875 C 12.859375 -8.09375 12.441406 -9.238281 11.609375 -10.125 C 10.773438 -11.007812 9.707031 -11.453125 8.40625 -11.453125 Z M 8.40625 -11.453125 "/></g></g></g><g fill="#a6a6a6" fill-opacity="1"><g transform="translate(135.256659, 197.224996)"><g><path d="M 4.78125 -13.15625 L 4.78125 0 L 2.546875 0 L 2.546875 -13.15625 Z M 2.078125 -18.171875 C 2.078125 -18.578125 2.238281 -18.9375 2.5625 -19.25 C 2.882812 -19.5625 3.253906 -19.71875 3.671875 -19.71875 C 4.097656 -19.71875 4.46875 -19.5625 4.78125 -19.25 C 5.101562 -18.9375 5.265625 -18.578125 5.265625 -18.171875 C 5.265625 -17.679688 5.101562 -17.28125 4.78125 -16.96875 C 4.46875 -16.664062 4.097656 -16.515625 3.671875 -16.515625 C 3.242188 -16.515625 2.867188 -16.664062 2.546875 -16.96875 C 2.234375 -17.269531 2.078125 -17.671875 2.078125 -18.171875 Z M 2.078125 -18.171875 "/></g></g></g><g fill="#a6a6a6" fill-opacity="1"><g transform="translate(142.591658, 197.224996)"><g><path d="M 13.578125 -6.109375 L 3.25 -6.109375 C 3.28125 -4.796875 3.707031 -3.734375 4.53125 -2.921875 C 5.351562 -2.109375 6.363281 -1.703125 7.5625 -1.703125 C 8.394531 -1.703125 9.132812 -1.914062 9.78125 -2.34375 C 10.425781 -2.78125 11.019531 -3.472656 11.5625 -4.421875 L 13.46875 -3.328125 C 12.832031 -2.148438 11.992188 -1.238281 10.953125 -0.59375 C 9.921875 0.0390625 8.734375 0.359375 7.390625 0.359375 C 6.097656 0.359375 4.957031 0.0507812 3.96875 -0.5625 C 2.976562 -1.175781 2.226562 -2 1.71875 -3.03125 C 1.207031 -4.070312 0.953125 -5.195312 0.953125 -6.40625 C 0.953125 -7.75 1.207031 -8.960938 1.71875 -10.046875 C 2.226562 -11.128906 2.96875 -11.976562 3.9375 -12.59375 C 4.914062 -13.21875 6.050781 -13.53125 7.34375 -13.53125 C 8.59375 -13.53125 9.695312 -13.222656 10.65625 -12.609375 C 11.613281 -12.003906 12.34375 -11.171875 12.84375 -10.109375 C 13.351562 -9.046875 13.609375 -7.851562 13.609375 -6.53125 C 13.609375 -6.394531 13.597656 -6.253906 13.578125 -6.109375 Z M 11.234375 -8.015625 C 11.046875 -9.035156 10.585938 -9.863281 9.859375 -10.5 C 9.128906 -11.132812 8.296875 -11.453125 7.359375 -11.453125 C 6.441406 -11.453125 5.582031 -11.117188 4.78125 -10.453125 C 3.976562 -9.796875 3.503906 -8.984375 3.359375 -8.015625 Z M 11.234375 -8.015625 "/></g></g></g><g fill="#a6a6a6" fill-opacity="1"><g transform="translate(157.121671, 197.224996)"><g><path d="M 8.171875 -10.859375 C 7.953125 -11.023438 7.742188 -11.164062 7.546875 -11.28125 C 7.347656 -11.394531 7.109375 -11.453125 6.828125 -11.453125 C 5.992188 -11.453125 5.351562 -11.078125 4.90625 -10.328125 C 4.46875 -9.585938 4.25 -8.382812 4.25 -6.71875 L 4.25 0 L 2.015625 0 L 2.015625 -13.15625 L 4.25 -13.15625 L 4.25 -11.734375 L 4.3125 -11.734375 C 4.851562 -12.460938 5.332031 -12.941406 5.75 -13.171875 C 6.175781 -13.410156 6.664062 -13.53125 7.21875 -13.53125 C 7.5625 -13.53125 7.90625 -13.472656 8.25 -13.359375 C 8.59375 -13.242188 8.921875 -13.09375 9.234375 -12.90625 Z M 8.171875 -10.859375 "/></g></g></g><g fill="#a6a6a6" fill-opacity="1"><g transform="translate(166.50039, 197.224996)"><g><path d="M 10.609375 -14.171875 L 14.734375 -4.25 L 18.640625 -13.15625 L 21.203125 -13.15625 L 14.671875 0.921875 L 10.609375 -8.875 L 6.546875 0.921875 L 0.078125 -13.15625 L 2.625 -13.15625 L 6.53125 -4.25 Z M 3.1875 0 Z M 3.1875 0 "/></g></g></g><g fill="#a6a6a6" fill-opacity="1"><g transform="translate(187.777484, 197.224996)"><g><path d="M 11.90625 -11.28125 L 11.90625 -13.15625 L 14.140625 -13.15625 L 14.140625 0 L 11.90625 0 L 11.90625 -1.8125 L 11.84375 -1.8125 C 10.6875 -0.363281 9.175781 0.359375 7.3125 0.359375 C 5.476562 0.359375 3.96875 -0.3125 2.78125 -1.65625 C 1.601562 -3 1.015625 -4.628906 1.015625 -6.546875 C 1.015625 -8.566406 1.609375 -10.234375 2.796875 -11.546875 C 3.992188 -12.867188 5.507812 -13.53125 7.34375 -13.53125 C 8.25 -13.53125 9.085938 -13.332031 9.859375 -12.9375 C 10.640625 -12.539062 11.300781 -11.988281 11.84375 -11.28125 Z M 7.59375 -11.453125 C 6.394531 -11.453125 5.378906 -10.992188 4.546875 -10.078125 C 3.710938 -9.160156 3.296875 -8.039062 3.296875 -6.71875 C 3.296875 -5.300781 3.703125 -4.109375 4.515625 -3.140625 C 5.328125 -2.179688 6.359375 -1.703125 7.609375 -1.703125 C 8.941406 -1.703125 10.007812 -2.160156 10.8125 -3.078125 C 11.613281 -3.992188 12.015625 -5.195312 12.015625 -6.6875 C 12.015625 -8.050781 11.601562 -9.1875 10.78125 -10.09375 C 9.957031 -11 8.894531 -11.453125 7.59375 -11.453125 Z M 7.59375 -11.453125 "/></g></g></g><g fill="#a6a6a6" fill-opacity="1"><g transform="translate(203.931276, 197.224996)"><g><path d="M 11.765625 -11.28125 L 11.765625 -13.15625 L 14 -13.15625 L 14 0.46875 C 14 2.675781 13.378906 4.375 12.140625 5.5625 C 10.910156 6.75 9.382812 7.34375 7.5625 7.34375 C 5.695312 7.34375 4.160156 6.785156 2.953125 5.671875 C 1.742188 4.554688 1.125 3.09375 1.09375 1.28125 L 3.328125 1.28125 C 3.328125 2.445312 3.710938 3.398438 4.484375 4.140625 C 5.265625 4.890625 6.289062 5.265625 7.5625 5.265625 C 8.9375 5.265625 9.976562 4.832031 10.6875 3.96875 C 11.40625 3.113281 11.765625 1.695312 11.765625 -0.28125 L 11.765625 -1.8125 L 11.703125 -1.8125 C 11.179688 -1.144531 10.515625 -0.613281 9.703125 -0.21875 C 8.890625 0.164062 8.035156 0.359375 7.140625 0.359375 C 5.921875 0.359375 4.835938 0.0507812 3.890625 -0.5625 C 2.941406 -1.175781 2.203125 -2.007812 1.671875 -3.0625 C 1.140625 -4.113281 0.875 -5.269531 0.875 -6.53125 C 0.875 -7.8125 1.144531 -8.988281 1.6875 -10.0625 C 2.238281 -11.132812 3 -11.976562 3.96875 -12.59375 C 4.945312 -13.21875 6.03125 -13.53125 7.21875 -13.53125 C 8.132812 -13.53125 8.972656 -13.332031 9.734375 -12.9375 C 10.503906 -12.539062 11.160156 -11.988281 11.703125 -11.28125 Z M 7.453125 -11.453125 C 6.660156 -11.453125 5.9375 -11.242188 5.28125 -10.828125 C 4.632812 -10.421875 4.117188 -9.847656 3.734375 -9.109375 C 3.347656 -8.378906 3.15625 -7.582031 3.15625 -6.71875 C 3.15625 -5.28125 3.554688 -4.082031 4.359375 -3.125 C 5.171875 -2.175781 6.207031 -1.703125 7.46875 -1.703125 C 8.800781 -1.703125 9.867188 -2.171875 10.671875 -3.109375 C 11.472656 -4.046875 11.875 -5.238281 11.875 -6.6875 C 11.875 -8.09375 11.457031 -9.238281 10.625 -10.125 C 9.789062 -11.007812 8.734375 -11.453125 7.453125 -11.453125 Z M 7.453125 -11.453125 "/></g></g></g><g fill="#a6a6a6" fill-opacity="1"><g transform="translate(220.169056, 197.224996)"><g><path d="M 13.578125 -6.109375 L 3.25 -6.109375 C 3.28125 -4.796875 3.707031 -3.734375 4.53125 -2.921875 C 5.351562 -2.109375 6.363281 -1.703125 7.5625 -1.703125 C 8.394531 -1.703125 9.132812 -1.914062 9.78125 -2.34375 C 10.425781 -2.78125 11.019531 -3.472656 11.5625 -4.421875 L 13.46875 -3.328125 C 12.832031 -2.148438 11.992188 -1.238281 10.953125 -0.59375 C 9.921875 0.0390625 8.734375 0.359375 7.390625 0.359375 C 6.097656 0.359375 4.957031 0.0507812 3.96875 -0.5625 C 2.976562 -1.175781 2.226562 -2 1.71875 -3.03125 C 1.207031 -4.070312 0.953125 -5.195312 0.953125 -6.40625 C 0.953125 -7.75 1.207031 -8.960938 1.71875 -10.046875 C 2.226562 -11.128906 2.96875 -11.976562 3.9375 -12.59375 C 4.914062 -13.21875 6.050781 -13.53125 7.34375 -13.53125 C 8.59375 -13.53125 9.695312 -13.222656 10.65625 -12.609375 C 11.613281 -12.003906 12.34375 -11.171875 12.84375 -10.109375 C 13.351562 -9.046875 13.609375 -7.851562 13.609375 -6.53125 C 13.609375 -6.394531 13.597656 -6.253906 13.578125 -6.109375 Z M 11.234375 -8.015625 C 11.046875 -9.035156 10.585938 -9.863281 9.859375 -10.5 C 9.128906 -11.132812 8.296875 -11.453125 7.359375 -11.453125 C 6.441406 -11.453125 5.582031 -11.117188 4.78125 -10.453125 C 3.976562 -9.796875 3.503906 -8.984375 3.359375 -8.015625 Z M 11.234375 -8.015625 "/></g></g></g><g fill="#a6a6a6" fill-opacity="1"><g transform="translate(234.699069, 197.224996)"><g><path d="M 12.65625 0 L 10.421875 0 L 10.421875 -7.671875 C 10.421875 -8.992188 10.21875 -9.953125 9.8125 -10.546875 C 9.414062 -11.148438 8.691406 -11.453125 7.640625 -11.453125 C 6.453125 -11.453125 5.609375 -11.039062 5.109375 -10.21875 C 4.617188 -9.394531 4.375 -8.144531 4.375 -6.46875 L 4.375 0 L 2.125 0 L 2.125 -13.15625 L 4.375 -13.15625 L 4.375 -11.5625 L 4.421875 -11.5625 C 4.890625 -12.195312 5.425781 -12.679688 6.03125 -13.015625 C 6.632812 -13.359375 7.347656 -13.53125 8.171875 -13.53125 C 9.648438 -13.53125 10.765625 -13.078125 11.515625 -12.171875 C 12.273438 -11.265625 12.65625 -9.859375 12.65625 -7.953125 Z M 12.65625 0 "/></g></g></g><g fill="#a6a6a6" fill-opacity="1"><g transform="translate(249.485671, 197.224996)"><g/></g></g><g fill="#a6a6a6" fill-opacity="1"><g transform="translate(121.045045, 230.456001)"><g><path d="M 11.625 -11.75 C 12.03125 -12.457031 12.59375 -13.007812 13.3125 -13.40625 C 14.039062 -13.800781 14.84375 -14 15.71875 -14 C 17.144531 -14 18.222656 -13.515625 18.953125 -12.546875 C 19.691406 -11.585938 20.0625 -10.21875 20.0625 -8.4375 L 20.0625 0 L 17.75 0 L 17.75 -8.09375 C 17.75 -9.46875 17.546875 -10.4375 17.140625 -11 C 16.734375 -11.570312 16.101562 -11.859375 15.25 -11.859375 C 14.25 -11.859375 13.503906 -11.488281 13.015625 -10.75 C 12.535156 -10.019531 12.296875 -8.890625 12.296875 -7.359375 L 12.296875 0 L 9.96875 0 L 9.96875 -7.859375 C 9.96875 -9.253906 9.757812 -10.269531 9.34375 -10.90625 C 8.9375 -11.539062 8.335938 -11.859375 7.546875 -11.859375 C 6.554688 -11.859375 5.804688 -11.484375 5.296875 -10.734375 C 4.785156 -9.992188 4.53125 -8.8125 4.53125 -7.1875 L 4.53125 0 L 2.203125 0 L 2.203125 -13.625 L 4.53125 -13.625 L 4.53125 -12.15625 L 4.578125 -12.15625 C 4.953125 -12.707031 5.414062 -13.148438 5.96875 -13.484375 C 6.53125 -13.828125 7.160156 -14 7.859375 -14 C 8.648438 -14 9.382812 -13.800781 10.0625 -13.40625 C 10.738281 -13.007812 11.257812 -12.457031 11.625 -11.75 Z M 11.625 -11.75 "/></g></g></g><g fill="#a6a6a6" fill-opacity="1"><g transform="translate(143.311034, 230.456001)"><g><path d="M 11.625 -11.75 C 12.03125 -12.457031 12.59375 -13.007812 13.3125 -13.40625 C 14.039062 -13.800781 14.84375 -14 15.71875 -14 C 17.144531 -14 18.222656 -13.515625 18.953125 -12.546875 C 19.691406 -11.585938 20.0625 -10.21875 20.0625 -8.4375 L 20.0625 0 L 17.75 0 L 17.75 -8.09375 C 17.75 -9.46875 17.546875 -10.4375 17.140625 -11 C 16.734375 -11.570312 16.101562 -11.859375 15.25 -11.859375 C 14.25 -11.859375 13.503906 -11.488281 13.015625 -10.75 C 12.535156 -10.019531 12.296875 -8.890625 12.296875 -7.359375 L 12.296875 0 L 9.96875 0 L 9.96875 -7.859375 C 9.96875 -9.253906 9.757812 -10.269531 9.34375 -10.90625 C 8.9375 -11.539062 8.335938 -11.859375 7.546875 -11.859375 C 6.554688 -11.859375 5.804688 -11.484375 5.296875 -10.734375 C 4.785156 -9.992188 4.53125 -8.8125 4.53125 -7.1875 L 4.53125 0 L 2.203125 0 L 2.203125 -13.625 L 4.53125 -13.625 L 4.53125 -12.15625 L 4.578125 -12.15625 C 4.953125 -12.707031 5.414062 -13.148438 5.96875 -13.484375 C 6.53125 -13.828125 7.160156 -14 7.859375 -14 C 8.648438 -14 9.382812 -13.800781 10.0625 -13.40625 C 10.738281 -13.007812 11.257812 -12.457031 11.625 -11.75 Z M 11.625 -11.75 "/></g></g></g><g fill="#a6a6a6" fill-opacity="1"><g transform="translate(165.577024, 230.456001)"><g><path d="M 0.984375 -6.78125 C 0.984375 -8.082031 1.300781 -9.289062 1.9375 -10.40625 C 2.582031 -11.53125 3.453125 -12.410156 4.546875 -13.046875 C 5.648438 -13.679688 6.851562 -14 8.15625 -14 C 9.445312 -14 10.640625 -13.679688 11.734375 -13.046875 C 12.828125 -12.410156 13.695312 -11.535156 14.34375 -10.421875 C 14.988281 -9.316406 15.3125 -8.101562 15.3125 -6.78125 C 15.3125 -5.488281 14.988281 -4.285156 14.34375 -3.171875 C 13.707031 -2.066406 12.835938 -1.195312 11.734375 -0.5625 C 10.640625 0.0625 9.445312 0.375 8.15625 0.375 C 6.851562 0.375 5.644531 0.0546875 4.53125 -0.578125 C 3.425781 -1.210938 2.554688 -2.085938 1.921875 -3.203125 C 1.296875 -4.316406 0.984375 -5.507812 0.984375 -6.78125 Z M 8.125 -11.859375 C 6.75 -11.859375 5.601562 -11.367188 4.6875 -10.390625 C 3.769531 -9.421875 3.3125 -8.226562 3.3125 -6.8125 C 3.3125 -5.769531 3.5625 -4.847656 4.0625 -4.046875 C 4.5625 -3.242188 5.171875 -2.660156 5.890625 -2.296875 C 6.617188 -1.941406 7.375 -1.765625 8.15625 -1.765625 C 9.039062 -1.765625 9.847656 -1.972656 10.578125 -2.390625 C 11.316406 -2.804688 11.898438 -3.40625 12.328125 -4.1875 C 12.765625 -4.96875 12.984375 -5.84375 12.984375 -6.8125 C 12.984375 -7.707031 12.785156 -8.539062 12.390625 -9.3125 C 11.992188 -10.082031 11.421875 -10.695312 10.671875 -11.15625 C 9.921875 -11.625 9.070312 -11.859375 8.125 -11.859375 Z M 8.125 -11.859375 "/></g></g></g><g fill="#a6a6a6" fill-opacity="1"><g transform="translate(181.870629, 230.456001)"><g><path d="M 4.40625 -23.921875 L 4.40625 -11.6875 L 4.46875 -11.6875 C 5.03125 -12.414062 5.71875 -12.984375 6.53125 -13.390625 C 7.34375 -13.796875 8.210938 -14 9.140625 -14 C 10.472656 -14 11.640625 -13.660156 12.640625 -12.984375 C 13.648438 -12.316406 14.410156 -11.4375 14.921875 -10.34375 C 15.429688 -9.25 15.6875 -8.070312 15.6875 -6.8125 C 15.6875 -5.570312 15.429688 -4.398438 14.921875 -3.296875 C 14.410156 -2.203125 13.644531 -1.316406 12.625 -0.640625 C 11.613281 0.0351562 10.457031 0.375 9.15625 0.375 C 8.21875 0.375 7.34375 0.179688 6.53125 -0.203125 C 5.71875 -0.585938 5.03125 -1.148438 4.46875 -1.890625 L 4.40625 -1.890625 L 4.40625 0 L 2.09375 0 L 2.09375 -23.921875 Z M 8.703125 -11.859375 C 7.460938 -11.859375 6.414062 -11.375 5.5625 -10.40625 C 4.71875 -9.445312 4.296875 -8.296875 4.296875 -6.953125 C 4.296875 -5.472656 4.707031 -4.238281 5.53125 -3.25 C 6.363281 -2.257812 7.441406 -1.765625 8.765625 -1.765625 C 10.128906 -1.765625 11.226562 -2.242188 12.0625 -3.203125 C 12.894531 -4.160156 13.3125 -5.40625 13.3125 -6.9375 C 13.3125 -8.382812 12.878906 -9.566406 12.015625 -10.484375 C 11.160156 -11.398438 10.054688 -11.859375 8.703125 -11.859375 Z M 8.703125 -11.859375 "/></g></g></g><g fill="#a6a6a6" fill-opacity="1"><g transform="translate(198.599109, 230.456001)"><g><path d="M 4.953125 -13.625 L 4.953125 0 L 2.640625 0 L 2.640625 -13.625 Z M 2.140625 -18.828125 C 2.140625 -19.242188 2.304688 -19.613281 2.640625 -19.9375 C 2.984375 -20.257812 3.367188 -20.421875 3.796875 -20.421875 C 4.242188 -20.421875 4.628906 -20.257812 4.953125 -19.9375 C 5.285156 -19.613281 5.453125 -19.242188 5.453125 -18.828125 C 5.453125 -18.316406 5.285156 -17.898438 4.953125 -17.578125 C 4.628906 -17.265625 4.242188 -17.109375 3.796875 -17.109375 C 3.347656 -17.109375 2.957031 -17.257812 2.625 -17.5625 C 2.300781 -17.875 2.140625 -18.296875 2.140625 -18.828125 Z M 2.140625 -18.828125 "/></g></g></g><g fill="#a6a6a6" fill-opacity="1"><g transform="translate(206.195056, 230.456001)"><g><path d="M 4.46875 -23.921875 L 4.46875 0 L 2.140625 0 L 2.140625 -23.921875 Z M 4.46875 -23.921875 "/></g></g></g><g fill="#a6a6a6" fill-opacity="1"><g transform="translate(212.776278, 230.456001)"><g><path d="M 4.953125 -13.625 L 4.953125 0 L 2.640625 0 L 2.640625 -13.625 Z M 2.140625 -18.828125 C 2.140625 -19.242188 2.304688 -19.613281 2.640625 -19.9375 C 2.984375 -20.257812 3.367188 -20.421875 3.796875 -20.421875 C 4.242188 -20.421875 4.628906 -20.257812 4.953125 -19.9375 C 5.285156 -19.613281 5.453125 -19.242188 5.453125 -18.828125 C 5.453125 -18.316406 5.285156 -17.898438 4.953125 -17.578125 C 4.628906 -17.265625 4.242188 -17.109375 3.796875 -17.109375 C 3.347656 -17.109375 2.957031 -17.257812 2.625 -17.5625 C 2.300781 -17.875 2.140625 -18.296875 2.140625 -18.828125 Z M 2.140625 -18.828125 "/></g></g></g><g fill="#a6a6a6" fill-opacity="1"><g transform="translate(220.372225, 230.456001)"><g><path d="M 14.0625 -6.328125 L 3.359375 -6.328125 C 3.398438 -4.972656 3.84375 -3.875 4.6875 -3.03125 C 5.539062 -2.1875 6.585938 -1.765625 7.828125 -1.765625 C 8.703125 -1.765625 9.472656 -1.988281 10.140625 -2.4375 C 10.804688 -2.882812 11.421875 -3.597656 11.984375 -4.578125 L 13.953125 -3.453125 C 13.296875 -2.234375 12.429688 -1.289062 11.359375 -0.625 C 10.285156 0.0390625 9.050781 0.375 7.65625 0.375 C 6.320312 0.375 5.140625 0.0546875 4.109375 -0.578125 C 3.085938 -1.210938 2.3125 -2.066406 1.78125 -3.140625 C 1.25 -4.210938 0.984375 -5.378906 0.984375 -6.640625 C 0.984375 -8.035156 1.25 -9.289062 1.78125 -10.40625 C 2.3125 -11.53125 3.078125 -12.410156 4.078125 -13.046875 C 5.085938 -13.679688 6.257812 -14 7.59375 -14 C 8.894531 -14 10.039062 -13.6875 11.03125 -13.0625 C 12.03125 -12.4375 12.789062 -11.570312 13.3125 -10.46875 C 13.832031 -9.363281 14.09375 -8.125 14.09375 -6.75 C 14.09375 -6.613281 14.082031 -6.472656 14.0625 -6.328125 Z M 11.625 -8.296875 C 11.4375 -9.359375 10.960938 -10.21875 10.203125 -10.875 C 9.453125 -11.53125 8.59375 -11.859375 7.625 -11.859375 C 6.675781 -11.859375 5.785156 -11.515625 4.953125 -10.828125 C 4.128906 -10.140625 3.640625 -9.296875 3.484375 -8.296875 Z M 11.625 -8.296875 "/></g></g></g><g fill="#a6a6a6" fill-opacity="1"><g transform="translate(235.419168, 230.456001)"><g><path d="M 13.109375 0 L 10.78125 0 L 10.78125 -7.953125 C 10.78125 -9.316406 10.570312 -10.304688 10.15625 -10.921875 C 9.75 -11.546875 9.003906 -11.859375 7.921875 -11.859375 C 6.679688 -11.859375 5.804688 -11.429688 5.296875 -10.578125 C 4.785156 -9.734375 4.53125 -8.441406 4.53125 -6.703125 L 4.53125 0 L 2.203125 0 L 2.203125 -13.625 L 4.53125 -13.625 L 4.53125 -11.984375 L 4.578125 -11.984375 C 5.066406 -12.640625 5.625 -13.140625 6.25 -13.484375 C 6.875 -13.828125 7.613281 -14 8.46875 -14 C 10 -14 11.15625 -13.53125 11.9375 -12.59375 C 12.71875 -11.65625 13.109375 -10.203125 13.109375 -8.234375 Z M 13.109375 0 "/></g></g></g><g fill="#ffffff" fill-opacity="1"><g transform="translate(112.672548, 230.529213)"><g><path d="M 4.96875 -13.640625 L 4.96875 0 L 2.640625 0 L 2.640625 -13.640625 Z M 2.140625 -18.828125 C 2.140625 -19.253906 2.304688 -19.625 2.640625 -19.9375 C 2.984375 -20.257812 3.367188 -20.421875 3.796875 -20.421875 C 4.242188 -20.421875 4.628906 -20.257812 4.953125 -19.9375 C 5.285156 -19.625 5.453125 -19.253906 5.453125 -18.828125 C 5.453125 -18.328125 5.285156 -17.914062 4.953125 -17.59375 C 4.628906 -17.28125 4.242188 -17.125 3.796875 -17.125 C 3.359375 -17.125 2.972656 -17.273438 2.640625 -17.578125 C 2.304688 -17.890625 2.140625 -18.304688 2.140625 -18.828125 Z M 2.140625 -18.828125 "/></g></g></g></svg>