<svg xmlns="http://www.w3.org/2000/svg" xmlns:xlink="http://www.w3.org/1999/xlink" width="546" zoomAndPan="magnify" viewBox="0 0 409.5 209.999996" height="280" preserveAspectRatio="xMidYMid meet" version="1.0"><defs><g/><clipPath id="ea84ceeda2"><path d="M 5.480469 103.101562 L 73.085938 103.101562 L 73.085938 173.289062 L 5.480469 173.289062 Z M 5.480469 103.101562 " clip-rule="nonzero"/></clipPath></defs><g clip-path="url(#ea84ceeda2)"><path fill="#0478cf" d="M 5.480469 103.101562 L 73.085938 103.101562 L 73.085938 173.347656 L 5.480469 173.347656 Z M 5.480469 103.101562 " fill-opacity="1" fill-rule="nonzero"/></g><g fill="#646262" fill-opacity="1"><g transform="translate(69.607174, 85.96778)"><g><path d="M 9.65625 -52.40625 L 9.65625 -25.609375 L 9.78125 -25.609375 C 11.007812 -27.210938 12.515625 -28.457031 14.296875 -29.34375 C 16.078125 -30.238281 17.984375 -30.6875 20.015625 -30.6875 C 22.929688 -30.6875 25.488281 -29.941406 27.6875 -28.453125 C 29.894531 -26.972656 31.5625 -25.035156 32.6875 -22.640625 C 33.8125 -20.253906 34.375 -17.6875 34.375 -14.9375 C 34.375 -12.21875 33.8125 -9.648438 32.6875 -7.234375 C 31.5625 -4.828125 29.882812 -2.878906 27.65625 -1.390625 C 25.4375 0.0859375 22.910156 0.828125 20.078125 0.828125 C 18.003906 0.828125 16.078125 0.40625 14.296875 -0.4375 C 12.515625 -1.289062 11.007812 -2.519531 9.78125 -4.125 L 9.65625 -4.125 L 9.65625 0 L 4.578125 0 L 4.578125 -52.40625 Z M 19.0625 -25.984375 C 16.351562 -25.984375 14.066406 -24.921875 12.203125 -22.796875 C 10.335938 -20.679688 9.40625 -18.164062 9.40625 -15.25 C 9.40625 -11.988281 10.3125 -9.273438 12.125 -7.109375 C 13.945312 -4.953125 16.300781 -3.875 19.1875 -3.875 C 22.195312 -3.875 24.609375 -4.921875 26.421875 -7.015625 C 28.242188 -9.117188 29.15625 -11.84375 29.15625 -15.1875 C 29.15625 -18.363281 28.210938 -20.957031 26.328125 -22.96875 C 24.441406 -24.976562 22.019531 -25.984375 19.0625 -25.984375 Z M 19.0625 -25.984375 "/></g></g></g><g fill="#646262" fill-opacity="1"><g transform="translate(106.263677, 85.96778)"><g><path d="M 10.859375 -29.859375 L 10.859375 0 L 5.78125 0 L 5.78125 -29.859375 Z M 4.703125 -41.234375 C 4.703125 -42.160156 5.070312 -42.972656 5.8125 -43.671875 C 6.550781 -44.367188 7.390625 -44.71875 8.328125 -44.71875 C 9.296875 -44.71875 10.140625 -44.367188 10.859375 -43.671875 C 11.578125 -42.972656 11.9375 -42.160156 11.9375 -41.234375 C 11.9375 -40.128906 11.578125 -39.226562 10.859375 -38.53125 C 10.140625 -37.832031 9.296875 -37.484375 8.328125 -37.484375 C 7.347656 -37.484375 6.5 -37.820312 5.78125 -38.5 C 5.0625 -39.175781 4.703125 -40.085938 4.703125 -41.234375 Z M 4.703125 -41.234375 "/></g></g></g><g fill="#646262" fill-opacity="1"><g transform="translate(122.908401, 85.96778)"><g><path d="M 30.8125 -13.84375 L 7.375 -13.84375 C 7.457031 -10.882812 8.429688 -8.484375 10.296875 -6.640625 C 12.160156 -4.796875 14.445312 -3.875 17.15625 -3.875 C 19.0625 -3.875 20.742188 -4.359375 22.203125 -5.328125 C 23.660156 -6.304688 25.003906 -7.875 26.234375 -10.03125 L 30.5625 -7.5625 C 29.113281 -4.894531 27.210938 -2.828125 24.859375 -1.359375 C 22.515625 0.0976562 19.816406 0.828125 16.765625 0.828125 C 13.847656 0.828125 11.265625 0.128906 9.015625 -1.265625 C 6.773438 -2.660156 5.070312 -4.535156 3.90625 -6.890625 C 2.738281 -9.242188 2.15625 -11.796875 2.15625 -14.546875 C 2.15625 -17.597656 2.738281 -20.351562 3.90625 -22.8125 C 5.070312 -25.269531 6.753906 -27.195312 8.953125 -28.59375 C 11.160156 -29.988281 13.722656 -30.6875 16.640625 -30.6875 C 19.484375 -30.6875 21.992188 -30 24.171875 -28.625 C 26.359375 -27.25 28.019531 -25.351562 29.15625 -22.9375 C 30.300781 -20.519531 30.875 -17.804688 30.875 -14.796875 C 30.875 -14.503906 30.851562 -14.1875 30.8125 -13.84375 Z M 25.46875 -18.171875 C 25.050781 -20.503906 24.015625 -22.390625 22.359375 -23.828125 C 20.710938 -25.265625 18.828125 -25.984375 16.703125 -25.984375 C 14.628906 -25.984375 12.679688 -25.226562 10.859375 -23.71875 C 9.035156 -22.21875 7.957031 -20.367188 7.625 -18.171875 Z M 25.46875 -18.171875 "/></g></g></g><g fill="#646262" fill-opacity="1"><g transform="translate(155.880193, 85.96778)"><g><path d="M 18.546875 -24.65625 C 18.035156 -25.03125 17.554688 -25.34375 17.109375 -25.59375 C 16.671875 -25.851562 16.132812 -25.984375 15.5 -25.984375 C 13.59375 -25.984375 12.140625 -25.132812 11.140625 -23.4375 C 10.148438 -21.75 9.65625 -19.019531 9.65625 -15.25 L 9.65625 0 L 4.578125 0 L 4.578125 -29.859375 L 9.65625 -29.859375 L 9.65625 -26.625 L 9.78125 -26.625 C 11.007812 -28.269531 12.097656 -29.359375 13.046875 -29.890625 C 14.003906 -30.421875 15.117188 -30.6875 16.390625 -30.6875 C 17.148438 -30.6875 17.921875 -30.554688 18.703125 -30.296875 C 19.492188 -30.046875 20.25 -29.707031 20.96875 -29.28125 Z M 18.546875 -24.65625 "/></g></g></g><g fill="#646262" fill-opacity="1"><g transform="translate(177.162566, 85.96778)"><g><path d="M 24.078125 -32.140625 L 33.421875 -9.65625 L 42.3125 -29.859375 L 48.09375 -29.859375 L 33.296875 2.09375 L 24.078125 -20.140625 L 14.859375 2.09375 L 0.1875 -29.859375 L 5.96875 -29.859375 L 14.796875 -9.65625 Z M 7.25 0 Z M 7.25 0 "/></g></g></g><g fill="#646262" fill-opacity="1"><g transform="translate(225.444968, 85.96778)"><g><path d="M 27 -25.609375 L 27 -29.859375 L 32.078125 -29.859375 L 32.078125 0 L 27 0 L 27 -4.125 L 26.875 -4.125 C 24.25 -0.820312 20.816406 0.828125 16.578125 0.828125 C 12.429688 0.828125 9.007812 -0.695312 6.3125 -3.75 C 3.625 -6.800781 2.28125 -10.503906 2.28125 -14.859375 C 2.28125 -19.441406 3.632812 -23.222656 6.34375 -26.203125 C 9.0625 -29.191406 12.492188 -30.6875 16.640625 -30.6875 C 18.722656 -30.6875 20.640625 -30.238281 22.390625 -29.34375 C 24.148438 -28.457031 25.644531 -27.210938 26.875 -25.609375 Z M 17.21875 -25.984375 C 14.507812 -25.984375 12.210938 -24.945312 10.328125 -22.875 C 8.441406 -20.800781 7.5 -18.257812 7.5 -15.25 C 7.5 -12.03125 8.421875 -9.328125 10.265625 -7.140625 C 12.109375 -4.960938 14.445312 -3.875 17.28125 -3.875 C 20.289062 -3.875 22.703125 -4.910156 24.515625 -6.984375 C 26.335938 -9.054688 27.25 -11.789062 27.25 -15.1875 C 27.25 -18.28125 26.316406 -20.851562 24.453125 -22.90625 C 22.597656 -24.957031 20.1875 -25.984375 17.21875 -25.984375 Z M 17.21875 -25.984375 "/></g></g></g><g fill="#646262" fill-opacity="1"><g transform="translate(262.101471, 85.96778)"><g><path d="M 26.6875 -25.609375 L 26.6875 -29.859375 L 31.765625 -29.859375 L 31.765625 1.078125 C 31.765625 6.078125 30.363281 9.921875 27.5625 12.609375 C 24.769531 15.296875 21.300781 16.640625 17.15625 16.640625 C 12.914062 16.640625 9.429688 15.378906 6.703125 12.859375 C 3.972656 10.335938 2.566406 7.023438 2.484375 2.921875 L 7.5625 2.921875 C 7.5625 5.546875 8.4375 7.703125 10.1875 9.390625 C 11.945312 11.085938 14.269531 11.9375 17.15625 11.9375 C 20.289062 11.9375 22.660156 10.960938 24.265625 9.015625 C 25.878906 7.066406 26.6875 3.847656 26.6875 -0.640625 L 26.6875 -4.125 L 26.5625 -4.125 C 25.375 -2.601562 23.859375 -1.394531 22.015625 -0.5 C 20.171875 0.382812 18.234375 0.828125 16.203125 0.828125 C 13.453125 0.828125 10.992188 0.128906 8.828125 -1.265625 C 6.671875 -2.660156 4.988281 -4.554688 3.78125 -6.953125 C 2.570312 -9.347656 1.96875 -11.960938 1.96875 -14.796875 C 1.96875 -17.722656 2.59375 -20.40625 3.84375 -22.84375 C 5.09375 -25.28125 6.816406 -27.195312 9.015625 -28.59375 C 11.222656 -29.988281 13.679688 -30.6875 16.390625 -30.6875 C 18.460938 -30.6875 20.367188 -30.238281 22.109375 -29.34375 C 23.847656 -28.457031 25.332031 -27.210938 26.5625 -25.609375 Z M 16.90625 -25.984375 C 15.125 -25.984375 13.488281 -25.515625 12 -24.578125 C 10.519531 -23.648438 9.34375 -22.347656 8.46875 -20.671875 C 7.601562 -19.003906 7.171875 -17.195312 7.171875 -15.25 C 7.171875 -11.988281 8.082031 -9.273438 9.90625 -7.109375 C 11.726562 -4.953125 14.082031 -3.875 16.96875 -3.875 C 19.96875 -3.875 22.378906 -4.929688 24.203125 -7.046875 C 26.023438 -9.171875 26.9375 -11.882812 26.9375 -15.1875 C 26.9375 -18.363281 25.992188 -20.957031 24.109375 -22.96875 C 22.222656 -24.976562 19.820312 -25.984375 16.90625 -25.984375 Z M 16.90625 -25.984375 "/></g></g></g><g fill="#646262" fill-opacity="1"><g transform="translate(298.948562, 85.96778)"><g><path d="M 30.8125 -13.84375 L 7.375 -13.84375 C 7.457031 -10.882812 8.429688 -8.484375 10.296875 -6.640625 C 12.160156 -4.796875 14.445312 -3.875 17.15625 -3.875 C 19.0625 -3.875 20.742188 -4.359375 22.203125 -5.328125 C 23.660156 -6.304688 25.003906 -7.875 26.234375 -10.03125 L 30.5625 -7.5625 C 29.113281 -4.894531 27.210938 -2.828125 24.859375 -1.359375 C 22.515625 0.0976562 19.816406 0.828125 16.765625 0.828125 C 13.847656 0.828125 11.265625 0.128906 9.015625 -1.265625 C 6.773438 -2.660156 5.070312 -4.535156 3.90625 -6.890625 C 2.738281 -9.242188 2.15625 -11.796875 2.15625 -14.546875 C 2.15625 -17.597656 2.738281 -20.351562 3.90625 -22.8125 C 5.070312 -25.269531 6.753906 -27.195312 8.953125 -28.59375 C 11.160156 -29.988281 13.722656 -30.6875 16.640625 -30.6875 C 19.484375 -30.6875 21.992188 -30 24.171875 -28.625 C 26.359375 -27.25 28.019531 -25.351562 29.15625 -22.9375 C 30.300781 -20.519531 30.875 -17.804688 30.875 -14.796875 C 30.875 -14.503906 30.851562 -14.1875 30.8125 -13.84375 Z M 25.46875 -18.171875 C 25.050781 -20.503906 24.015625 -22.390625 22.359375 -23.828125 C 20.710938 -25.265625 18.828125 -25.984375 16.703125 -25.984375 C 14.628906 -25.984375 12.679688 -25.226562 10.859375 -23.71875 C 9.035156 -22.21875 7.957031 -20.367188 7.625 -18.171875 Z M 25.46875 -18.171875 "/></g></g></g><g fill="#646262" fill-opacity="1"><g transform="translate(331.920354, 85.96778)"><g><path d="M 28.71875 0 L 23.640625 0 L 23.640625 -17.40625 C 23.640625 -20.414062 23.179688 -22.597656 22.265625 -23.953125 C 21.359375 -25.304688 19.71875 -25.984375 17.34375 -25.984375 C 14.632812 -25.984375 12.71875 -25.050781 11.59375 -23.1875 C 10.46875 -21.320312 9.90625 -18.484375 9.90625 -14.671875 L 9.90625 0 L 4.828125 0 L 4.828125 -29.859375 L 9.90625 -29.859375 L 9.90625 -26.234375 L 10.03125 -26.234375 C 11.09375 -27.671875 12.3125 -28.769531 13.6875 -29.53125 C 15.0625 -30.300781 16.679688 -30.6875 18.546875 -30.6875 C 21.890625 -30.6875 24.421875 -29.65625 26.140625 -27.59375 C 27.859375 -25.539062 28.71875 -22.359375 28.71875 -18.046875 Z M 28.71875 0 "/></g></g></g><g fill="#646262" fill-opacity="1"><g transform="translate(365.474401, 85.96778)"><g/></g></g><g fill="#646262" fill-opacity="1"><g transform="translate(74.014415, 161.376253)"><g><path d="M 26.390625 -26.640625 C 27.304688 -28.265625 28.585938 -29.523438 30.234375 -30.421875 C 31.878906 -31.328125 33.6875 -31.78125 35.65625 -31.78125 C 38.90625 -31.78125 41.363281 -30.679688 43.03125 -28.484375 C 44.695312 -26.296875 45.53125 -23.179688 45.53125 -19.140625 L 45.53125 0 L 40.265625 0 L 40.265625 -18.359375 C 40.265625 -21.472656 39.800781 -23.675781 38.875 -24.96875 C 37.957031 -26.257812 36.535156 -26.90625 34.609375 -26.90625 C 32.328125 -26.90625 30.632812 -26.070312 29.53125 -24.40625 C 28.4375 -22.738281 27.890625 -20.175781 27.890625 -16.71875 L 27.890625 0 L 22.640625 0 L 22.640625 -17.828125 C 22.640625 -20.984375 22.164062 -23.285156 21.21875 -24.734375 C 20.28125 -26.179688 18.910156 -26.90625 17.109375 -26.90625 C 14.867188 -26.90625 13.164062 -26.0625 12 -24.375 C 10.84375 -22.6875 10.265625 -20 10.265625 -16.3125 L 10.265625 0 L 5 0 L 5 -30.921875 L 10.265625 -30.921875 L 10.265625 -27.5625 L 10.390625 -27.5625 C 11.222656 -28.84375 12.273438 -29.863281 13.546875 -30.625 C 14.828125 -31.394531 16.253906 -31.78125 17.828125 -31.78125 C 19.628906 -31.78125 21.296875 -31.328125 22.828125 -30.421875 C 24.367188 -29.523438 25.554688 -28.265625 26.390625 -26.640625 Z M 26.390625 -26.640625 "/></g></g></g><g fill="#646262" fill-opacity="1"><g transform="translate(124.540837, 161.376253)"><g><path d="M 26.390625 -26.640625 C 27.304688 -28.265625 28.585938 -29.523438 30.234375 -30.421875 C 31.878906 -31.328125 33.6875 -31.78125 35.65625 -31.78125 C 38.90625 -31.78125 41.363281 -30.679688 43.03125 -28.484375 C 44.695312 -26.296875 45.53125 -23.179688 45.53125 -19.140625 L 45.53125 0 L 40.265625 0 L 40.265625 -18.359375 C 40.265625 -21.472656 39.800781 -23.675781 38.875 -24.96875 C 37.957031 -26.257812 36.535156 -26.90625 34.609375 -26.90625 C 32.328125 -26.90625 30.632812 -26.070312 29.53125 -24.40625 C 28.4375 -22.738281 27.890625 -20.175781 27.890625 -16.71875 L 27.890625 0 L 22.640625 0 L 22.640625 -17.828125 C 22.640625 -20.984375 22.164062 -23.285156 21.21875 -24.734375 C 20.28125 -26.179688 18.910156 -26.90625 17.109375 -26.90625 C 14.867188 -26.90625 13.164062 -26.0625 12 -24.375 C 10.84375 -22.6875 10.265625 -20 10.265625 -16.3125 L 10.265625 0 L 5 0 L 5 -30.921875 L 10.265625 -30.921875 L 10.265625 -27.5625 L 10.390625 -27.5625 C 11.222656 -28.84375 12.273438 -29.863281 13.546875 -30.625 C 14.828125 -31.394531 16.253906 -31.78125 17.828125 -31.78125 C 19.628906 -31.78125 21.296875 -31.328125 22.828125 -30.421875 C 24.367188 -29.523438 25.554688 -28.265625 26.390625 -26.640625 Z M 26.390625 -26.640625 "/></g></g></g><g fill="#646262" fill-opacity="1"><g transform="translate(175.067259, 161.376253)"><g><path d="M 2.234375 -15.390625 C 2.234375 -18.335938 2.957031 -21.082031 4.40625 -23.625 C 5.851562 -26.164062 7.828125 -28.160156 10.328125 -29.609375 C 12.828125 -31.054688 15.546875 -31.78125 18.484375 -31.78125 C 21.421875 -31.78125 24.128906 -31.054688 26.609375 -29.609375 C 29.085938 -28.160156 31.0625 -26.175781 32.53125 -23.65625 C 34 -21.132812 34.734375 -18.378906 34.734375 -15.390625 C 34.734375 -12.453125 34.007812 -9.722656 32.5625 -7.203125 C 31.113281 -4.679688 29.140625 -2.707031 26.640625 -1.28125 C 24.140625 0.144531 21.421875 0.859375 18.484375 0.859375 C 15.546875 0.859375 12.816406 0.132812 10.296875 -1.3125 C 7.773438 -2.757812 5.800781 -4.742188 4.375 -7.265625 C 2.945312 -9.785156 2.234375 -12.492188 2.234375 -15.390625 Z M 18.421875 -26.90625 C 15.304688 -26.90625 12.707031 -25.796875 10.625 -23.578125 C 8.539062 -21.367188 7.5 -18.664062 7.5 -15.46875 C 7.5 -13.09375 8.066406 -10.992188 9.203125 -9.171875 C 10.347656 -7.359375 11.742188 -6.046875 13.390625 -5.234375 C 15.035156 -4.421875 16.734375 -4.015625 18.484375 -4.015625 C 20.503906 -4.015625 22.347656 -4.484375 24.015625 -5.421875 C 25.679688 -6.367188 27.007812 -7.726562 28 -9.5 C 28.988281 -11.28125 29.484375 -13.269531 29.484375 -15.46875 C 29.484375 -17.476562 29.03125 -19.359375 28.125 -21.109375 C 27.226562 -22.867188 25.921875 -24.273438 24.203125 -25.328125 C 22.492188 -26.378906 20.566406 -26.90625 18.421875 -26.90625 Z M 18.421875 -26.90625 "/></g></g></g><g fill="#646262" fill-opacity="1"><g transform="translate(212.041028, 161.376253)"><g><path d="M 10 -54.28125 L 10 -26.515625 L 10.125 -26.515625 C 11.40625 -28.179688 12.960938 -29.472656 14.796875 -30.390625 C 16.640625 -31.316406 18.613281 -31.78125 20.71875 -31.78125 C 23.75 -31.78125 26.40625 -31.007812 28.6875 -29.46875 C 30.96875 -27.9375 32.6875 -25.929688 33.84375 -23.453125 C 35.007812 -20.972656 35.59375 -18.3125 35.59375 -15.46875 C 35.59375 -12.65625 35.007812 -10 33.84375 -7.5 C 32.6875 -5 30.957031 -2.976562 28.65625 -1.4375 C 26.351562 0.09375 23.734375 0.859375 20.796875 0.859375 C 18.640625 0.859375 16.640625 0.421875 14.796875 -0.453125 C 12.960938 -1.335938 11.40625 -2.613281 10.125 -4.28125 L 10 -4.28125 L 10 0 L 4.734375 0 L 4.734375 -54.28125 Z M 19.734375 -26.90625 C 16.929688 -26.90625 14.5625 -25.804688 12.625 -23.609375 C 10.695312 -21.421875 9.734375 -18.816406 9.734375 -15.796875 C 9.734375 -12.410156 10.675781 -9.597656 12.5625 -7.359375 C 14.445312 -5.128906 16.882812 -4.015625 19.875 -4.015625 C 22.988281 -4.015625 25.488281 -5.097656 27.375 -7.265625 C 29.257812 -9.441406 30.203125 -12.257812 30.203125 -15.71875 C 30.203125 -19.007812 29.222656 -21.695312 27.265625 -23.78125 C 25.316406 -25.863281 22.804688 -26.90625 19.734375 -26.90625 Z M 19.734375 -26.90625 "/></g></g></g><g fill="#646262" fill-opacity="1"><g transform="translate(250.001626, 161.376253)"><g><path d="M 11.25 -30.921875 L 11.25 0 L 5.984375 0 L 5.984375 -30.921875 Z M 4.875 -42.703125 C 4.875 -43.671875 5.253906 -44.515625 6.015625 -45.234375 C 6.785156 -45.960938 7.65625 -46.328125 8.625 -46.328125 C 9.625 -46.328125 10.5 -45.960938 11.25 -45.234375 C 12 -44.515625 12.375 -43.671875 12.375 -42.703125 C 12.375 -41.554688 12 -40.617188 11.25 -39.890625 C 10.5 -39.171875 9.625 -38.8125 8.625 -38.8125 C 7.613281 -38.8125 6.734375 -39.160156 5.984375 -39.859375 C 5.242188 -40.566406 4.875 -41.515625 4.875 -42.703125 Z M 4.875 -42.703125 "/></g></g></g><g fill="#646262" fill-opacity="1"><g transform="translate(267.238498, 161.376253)"><g><path d="M 10.125 -54.28125 L 10.125 0 L 4.875 0 L 4.875 -54.28125 Z M 10.125 -54.28125 "/></g></g></g><g fill="#646262" fill-opacity="1"><g transform="translate(282.172737, 161.376253)"><g><path d="M 11.25 -30.921875 L 11.25 0 L 5.984375 0 L 5.984375 -30.921875 Z M 4.875 -42.703125 C 4.875 -43.671875 5.253906 -44.515625 6.015625 -45.234375 C 6.785156 -45.960938 7.65625 -46.328125 8.625 -46.328125 C 9.625 -46.328125 10.5 -45.960938 11.25 -45.234375 C 12 -44.515625 12.375 -43.671875 12.375 -42.703125 C 12.375 -41.554688 12 -40.617188 11.25 -39.890625 C 10.5 -39.171875 9.625 -38.8125 8.625 -38.8125 C 7.613281 -38.8125 6.734375 -39.160156 5.984375 -39.859375 C 5.242188 -40.566406 4.875 -41.515625 4.875 -42.703125 Z M 4.875 -42.703125 "/></g></g></g><g fill="#646262" fill-opacity="1"><g transform="translate(299.409609, 161.376253)"><g><path d="M 31.90625 -14.34375 L 7.625 -14.34375 C 7.71875 -11.269531 8.726562 -8.78125 10.65625 -6.875 C 12.582031 -4.96875 14.953125 -4.015625 17.765625 -4.015625 C 19.734375 -4.015625 21.472656 -4.519531 22.984375 -5.53125 C 24.503906 -6.539062 25.898438 -8.160156 27.171875 -10.390625 L 31.640625 -7.828125 C 30.148438 -5.066406 28.1875 -2.925781 25.75 -1.40625 C 23.320312 0.101562 20.53125 0.859375 17.375 0.859375 C 14.34375 0.859375 11.664062 0.132812 9.34375 -1.3125 C 7.019531 -2.757812 5.253906 -4.703125 4.046875 -7.140625 C 2.835938 -9.578125 2.234375 -12.21875 2.234375 -15.0625 C 2.234375 -18.226562 2.835938 -21.082031 4.046875 -23.625 C 5.253906 -26.164062 7 -28.160156 9.28125 -29.609375 C 11.5625 -31.054688 14.210938 -31.78125 17.234375 -31.78125 C 20.171875 -31.78125 22.769531 -31.066406 25.03125 -29.640625 C 27.289062 -28.210938 29.015625 -26.25 30.203125 -23.75 C 31.390625 -21.25 31.984375 -18.441406 31.984375 -15.328125 C 31.984375 -15.023438 31.957031 -14.695312 31.90625 -14.34375 Z M 26.390625 -18.8125 C 25.953125 -21.226562 24.875 -23.179688 23.15625 -24.671875 C 21.445312 -26.160156 19.492188 -26.90625 17.296875 -26.90625 C 15.148438 -26.90625 13.132812 -26.125 11.25 -24.5625 C 9.363281 -23.007812 8.242188 -21.09375 7.890625 -18.8125 Z M 26.390625 -18.8125 "/></g></g></g><g fill="#646262" fill-opacity="1"><g transform="translate(333.554428, 161.376253)"><g><path d="M 29.734375 0 L 24.46875 0 L 24.46875 -18.03125 C 24.46875 -21.144531 23.992188 -23.398438 23.046875 -24.796875 C 22.109375 -26.203125 20.414062 -26.90625 17.96875 -26.90625 C 15.15625 -26.90625 13.164062 -25.941406 12 -24.015625 C 10.84375 -22.085938 10.265625 -19.148438 10.265625 -15.203125 L 10.265625 0 L 5 0 L 5 -30.921875 L 10.265625 -30.921875 L 10.265625 -27.171875 L 10.390625 -27.171875 C 11.492188 -28.660156 12.753906 -29.800781 14.171875 -30.59375 C 15.597656 -31.382812 17.28125 -31.78125 19.21875 -31.78125 C 22.675781 -31.78125 25.289062 -30.710938 27.0625 -28.578125 C 28.84375 -26.453125 29.734375 -23.15625 29.734375 -18.6875 Z M 29.734375 0 "/></g></g></g><g fill="#ffffff" fill-opacity="1"><g transform="translate(55.015377, 161.542437)"><g><path d="M 11.265625 -30.953125 L 11.265625 0 L 5.984375 0 L 5.984375 -30.953125 Z M 4.875 -42.734375 C 4.875 -43.703125 5.253906 -44.546875 6.015625 -45.265625 C 6.785156 -45.992188 7.65625 -46.359375 8.625 -46.359375 C 9.632812 -46.359375 10.507812 -45.992188 11.25 -45.265625 C 12 -44.546875 12.375 -43.703125 12.375 -42.734375 C 12.375 -41.585938 12 -40.648438 11.25 -39.921875 C 10.507812 -39.203125 9.632812 -38.84375 8.625 -38.84375 C 7.613281 -38.84375 6.734375 -39.191406 5.984375 -39.890625 C 5.242188 -40.597656 4.875 -41.546875 4.875 -42.734375 Z M 4.875 -42.734375 "/></g></g></g></svg>